<svg width="13" height="12" viewBox="0 0 13 12" fill="none" xmlns="http://www.w3.org/2000/svg">
<g clip-path="url(#clip0_1_641)">
<path d="M9.52548 4.775L9.48003 4.75838L8.66411 3.19671C8.49921 2.88091 8.25318 2.61653 7.9521 2.43206C7.651 2.24758 7.30627 2.15002 6.95478 2.15H4.85508C4.85508 2.15 4.85507 2.15 4.85507 2.15C4.448 2.14998 4.05146 2.28076 3.72165 2.52349C3.39186 2.76619 3.1456 3.10843 3.01736 3.50146C3.01736 3.50147 3.01736 3.50148 3.01735 3.50148L2.6337 4.67644C2.30038 4.82937 2.01619 5.07544 1.81413 5.38627C1.6037 5.70997 1.4916 6.08963 1.49164 6.47775C1.49164 6.47775 1.49164 6.47776 1.49164 6.47776L1.49164 7.3125C1.49164 7.86582 1.80405 8.34466 2.25936 8.57667C2.32866 8.91638 2.50461 9.2247 2.76164 9.4543C3.03154 9.69538 3.37453 9.83505 3.73354 9.84959C4.09255 9.86413 4.44538 9.75263 4.73323 9.53406C5.00038 9.33121 5.19652 9.04759 5.29469 8.725H8.17405C8.27222 9.04759 8.46837 9.33121 8.73551 9.53406C9.02337 9.75263 9.37619 9.86413 9.73521 9.84959C10.0942 9.83505 10.4372 9.69538 10.7071 9.4543C10.9641 9.22472 11.1401 8.91643 11.2094 8.57675C11.4321 8.46363 11.621 8.29137 11.756 8.07796C11.9004 7.84967 11.9771 7.58389 11.9771 7.3125V7.05825C11.977 6.65101 11.8535 6.2536 11.6233 5.92053C11.393 5.58744 11.0672 5.33492 10.6902 5.19801L10.6902 5.198L9.64671 4.81917V4.775H9.54671H9.52548ZM4.85501 3.1H4.85507H5.53236V4.775H3.58599L3.90396 3.80052L3.90396 3.80052C3.97071 3.59595 4.09872 3.4184 4.26948 3.2928C4.44021 3.16722 4.64507 3.09988 4.85501 3.1ZM7.83886 3.64181L8.43096 4.775H6.46703V3.1H6.95477H6.95481C7.13605 3.09993 7.31402 3.15016 7.46972 3.24548C7.62544 3.34081 7.75312 3.47773 7.83886 3.64181ZM2.42632 7.31276V7.3125V6.47775C2.42632 6.18287 2.54913 5.91343 2.74723 5.725H9.36381L10.3758 6.09249C10.3758 6.09249 10.3758 6.09249 10.3758 6.09249C10.5704 6.16319 10.7391 6.29375 10.8586 6.46663C10.9781 6.63954 11.0424 6.84621 11.0424 7.05826V7.3125C11.0424 7.35577 11.0366 7.39762 11.0258 7.43731C10.8952 7.21088 10.7113 7.0196 10.4891 6.88173C10.2088 6.70777 9.88193 6.6277 9.55445 6.65301C9.22697 6.67832 8.91576 6.80771 8.66446 7.02265C8.43293 7.22068 8.263 7.48212 8.17402 7.775H5.29473C5.20574 7.48212 5.03582 7.22068 4.80429 7.02265C4.55299 6.80771 4.24177 6.67832 3.9143 6.65301C3.58682 6.6277 3.25994 6.70777 2.97963 6.88173C2.75742 7.01964 2.57341 7.21099 2.44278 7.43752C2.43183 7.3972 2.42621 7.35525 2.42632 7.31276ZM3.161 8.25C3.161 8.07695 3.22835 7.9114 3.34761 7.78965C3.4668 7.66797 3.62802 7.6 3.79567 7.6C3.96332 7.6 4.12454 7.66797 4.24373 7.78965C4.36299 7.9114 4.43035 8.07695 4.43035 8.25C4.43035 8.42305 4.36299 8.58861 4.24373 8.71035C4.12454 8.83203 3.96332 8.9 3.79567 8.9C3.62802 8.9 3.4668 8.83203 3.34761 8.71035C3.22835 8.58861 3.161 8.42305 3.161 8.25ZM9.67307 7.6C9.84073 7.6 10.0019 7.66797 10.1211 7.78965C10.2404 7.9114 10.3077 8.07695 10.3077 8.25C10.3077 8.42305 10.2404 8.58861 10.1211 8.71035C10.0019 8.83203 9.84073 8.9 9.67307 8.9C9.50542 8.9 9.34421 8.83203 9.22502 8.71035C9.10576 8.58861 9.0384 8.42305 9.0384 8.25C9.0384 8.07695 9.10576 7.9114 9.22502 7.78965C9.34421 7.66797 9.50542 7.6 9.67307 7.6Z" fill="url(#paint0_linear_1_641)" stroke="url(#paint1_linear_1_641)" stroke-width="0.2"/>
</g>
<defs>
<linearGradient id="paint0_linear_1_641" x1="1.59164" y1="6.10758" x2="11.8771" y2="6.10758" gradientUnits="userSpaceOnUse">
<stop stop-color="#3E79E5"/>
<stop offset="1" stop-color="#01B8E3"/>
</linearGradient>
<linearGradient id="paint1_linear_1_641" x1="1.59164" y1="6.10758" x2="11.8771" y2="6.10758" gradientUnits="userSpaceOnUse">
<stop stop-color="#3E79E5"/>
<stop offset="1" stop-color="#01B8E3"/>
</linearGradient>
<clipPath id="clip0_1_641">
<rect width="11.7548" height="12" fill="white" transform="translate(0.856964)"/>
</clipPath>
</defs>
</svg>
