<svg width="18" height="18" viewBox="0 0 18 18" fill="none" xmlns="http://www.w3.org/2000/svg">
<path fill-rule="evenodd" clip-rule="evenodd" d="M4.11157 11.6661C3.70963 11.6661 3.14173 11.7217 2.55052 11.8027C2.27431 11.8405 2.06371 12.0511 2.02588 12.3273C1.94491 12.9185 1.88935 13.4864 1.88935 13.8884C1.88935 14.2903 1.94491 14.8582 2.02588 15.4494C2.06371 15.7256 2.27431 15.9362 2.55052 15.9741C3.14173 16.055 3.70963 16.1106 4.11157 16.1106C4.51351 16.1106 5.08142 16.055 5.67263 15.9741C5.94883 15.9362 6.15944 15.7256 6.19727 15.4494C6.27824 14.8582 6.3338 14.2903 6.3338 13.8884C6.3338 13.4864 6.27824 12.9185 6.19727 12.3273C6.15944 12.0511 5.94883 11.8405 5.67263 11.8027C5.08142 11.7217 4.51351 11.6661 4.11157 11.6661ZM2.30929 10.0413C1.24271 10.1874 0.410615 11.0195 0.264543 12.0861C0.180762 12.6978 0.111572 13.3623 0.111572 13.8884C0.111572 14.4144 0.180762 15.0789 0.264543 15.6906C0.410615 16.7572 1.24271 17.5893 2.30929 17.7354C2.92104 17.8192 3.58549 17.8884 4.11157 17.8884C4.63765 17.8884 5.30211 17.8192 5.91385 17.7354C6.98043 17.5893 7.81253 16.7572 7.9586 15.6906C8.04238 15.0789 8.11157 14.4144 8.11157 13.8884C8.11157 13.3623 8.04238 12.6978 7.9586 12.0861C7.81253 11.0195 6.98043 10.1874 5.91385 10.0413C5.30211 9.95756 4.63765 9.88837 4.11157 9.88837C3.58549 9.88837 2.92104 9.95756 2.30929 10.0413Z" fill="url(#paint0_linear_115_16)" fill-opacity="0.2"/>
<path fill-rule="evenodd" clip-rule="evenodd" d="M4.11157 11.6661C3.70963 11.6661 3.14173 11.7217 2.55052 11.8027C2.27431 11.8405 2.06371 12.0511 2.02588 12.3273C1.94491 12.9185 1.88935 13.4864 1.88935 13.8884C1.88935 14.2903 1.94491 14.8582 2.02588 15.4494C2.06371 15.7256 2.27431 15.9362 2.55052 15.9741C3.14173 16.055 3.70963 16.1106 4.11157 16.1106C4.51351 16.1106 5.08142 16.055 5.67263 15.9741C5.94883 15.9362 6.15944 15.7256 6.19727 15.4494C6.27824 14.8582 6.3338 14.2903 6.3338 13.8884C6.3338 13.4864 6.27824 12.9185 6.19727 12.3273C6.15944 12.0511 5.94883 11.8405 5.67263 11.8027C5.08142 11.7217 4.51351 11.6661 4.11157 11.6661ZM2.30929 10.0413C1.24271 10.1874 0.410615 11.0195 0.264543 12.0861C0.180762 12.6978 0.111572 13.3623 0.111572 13.8884C0.111572 14.4144 0.180762 15.0789 0.264543 15.6906C0.410615 16.7572 1.24271 17.5893 2.30929 17.7354C2.92104 17.8192 3.58549 17.8884 4.11157 17.8884C4.63765 17.8884 5.30211 17.8192 5.91385 17.7354C6.98043 17.5893 7.81253 16.7572 7.9586 15.6906C8.04238 15.0789 8.11157 14.4144 8.11157 13.8884C8.11157 13.3623 8.04238 12.6978 7.9586 12.0861C7.81253 11.0195 6.98043 10.1874 5.91385 10.0413C5.30211 9.95756 4.63765 9.88837 4.11157 9.88837C3.58549 9.88837 2.92104 9.95756 2.30929 10.0413Z" fill="#FAFBFC"/>
<path fill-rule="evenodd" clip-rule="evenodd" d="M13.8895 1.8885C13.4876 1.8885 12.9197 1.94406 12.3285 2.02502C12.0523 2.06285 11.8417 2.27346 11.8038 2.54966C11.7229 3.14087 11.6673 3.70878 11.6673 4.11072C11.6673 4.51266 11.7229 5.08056 11.8038 5.67178C11.8417 5.94798 12.0523 6.15859 12.3285 6.19641C12.9197 6.27738 13.4876 6.33294 13.8895 6.33294C14.2915 6.33294 14.8594 6.27738 15.4506 6.19641C15.7268 6.15859 15.9374 5.94798 15.9752 5.67178C16.0562 5.08056 16.1117 4.51266 16.1117 4.11072C16.1117 3.70878 16.0562 3.14087 15.9752 2.54966C15.9374 2.27346 15.7268 2.06285 15.4506 2.02502C14.8594 1.94406 14.2915 1.8885 13.8895 1.8885ZM12.0872 0.263688C11.0207 0.409761 10.1886 1.24186 10.0425 2.30844C9.95872 2.92018 9.88953 3.58464 9.88953 4.11072C9.88953 4.6368 9.95872 5.30126 10.0425 5.913C10.1886 6.97958 11.0207 7.81168 12.0872 7.95775C12.699 8.04153 13.3634 8.11072 13.8895 8.11072C14.4156 8.11072 15.0801 8.04153 15.6918 7.95775C16.7584 7.81168 17.5905 6.97958 17.7366 5.913C17.8203 5.30126 17.8895 4.6368 17.8895 4.11072C17.8895 3.58464 17.8203 2.92018 17.7366 2.30844C17.5905 1.24186 16.7584 0.409761 15.6918 0.263688C15.0801 0.179908 14.4156 0.110718 13.8895 0.110718C13.3634 0.110718 12.699 0.179908 12.0872 0.263688Z" fill="url(#paint1_linear_115_16)" fill-opacity="0.2"/>
<path fill-rule="evenodd" clip-rule="evenodd" d="M13.8895 1.8885C13.4876 1.8885 12.9197 1.94406 12.3285 2.02502C12.0523 2.06285 11.8417 2.27346 11.8038 2.54966C11.7229 3.14087 11.6673 3.70878 11.6673 4.11072C11.6673 4.51266 11.7229 5.08056 11.8038 5.67178C11.8417 5.94798 12.0523 6.15859 12.3285 6.19641C12.9197 6.27738 13.4876 6.33294 13.8895 6.33294C14.2915 6.33294 14.8594 6.27738 15.4506 6.19641C15.7268 6.15859 15.9374 5.94798 15.9752 5.67178C16.0562 5.08056 16.1117 4.51266 16.1117 4.11072C16.1117 3.70878 16.0562 3.14087 15.9752 2.54966C15.9374 2.27346 15.7268 2.06285 15.4506 2.02502C14.8594 1.94406 14.2915 1.8885 13.8895 1.8885ZM12.0872 0.263688C11.0207 0.409761 10.1886 1.24186 10.0425 2.30844C9.95872 2.92018 9.88953 3.58464 9.88953 4.11072C9.88953 4.6368 9.95872 5.30126 10.0425 5.913C10.1886 6.97958 11.0207 7.81168 12.0872 7.95775C12.699 8.04153 13.3634 8.11072 13.8895 8.11072C14.4156 8.11072 15.0801 8.04153 15.6918 7.95775C16.7584 7.81168 17.5905 6.97958 17.7366 5.913C17.8203 5.30126 17.8895 4.6368 17.8895 4.11072C17.8895 3.58464 17.8203 2.92018 17.7366 2.30844C17.5905 1.24186 16.7584 0.409761 15.6918 0.263688C15.0801 0.179908 14.4156 0.110718 13.8895 0.110718C13.3634 0.110718 12.699 0.179908 12.0872 0.263688Z" fill="#FAFBFC"/>
<path fill-rule="evenodd" clip-rule="evenodd" d="M4.11157 1.8885C3.70963 1.8885 3.14173 1.94406 2.55052 2.02502C2.27431 2.06285 2.06371 2.27346 2.02588 2.54966C1.94491 3.14087 1.88935 3.70878 1.88935 4.11072C1.88935 4.51266 1.94491 5.08056 2.02588 5.67178C2.06371 5.94798 2.27431 6.15859 2.55052 6.19641C3.14173 6.27738 3.70963 6.33294 4.11157 6.33294C4.51351 6.33294 5.08142 6.27738 5.67263 6.19641C5.94883 6.15859 6.15944 5.94798 6.19727 5.67178C6.27824 5.08056 6.3338 4.51266 6.3338 4.11072C6.3338 3.70878 6.27824 3.14087 6.19727 2.54966C6.15944 2.27346 5.94883 2.06285 5.67263 2.02502C5.08142 1.94406 4.51351 1.8885 4.11157 1.8885ZM2.30929 0.263688C1.24271 0.409761 0.410615 1.24186 0.264543 2.30844C0.180762 2.92018 0.111572 3.58464 0.111572 4.11072C0.111572 4.6368 0.180762 5.30126 0.264543 5.913C0.410615 6.97958 1.24271 7.81168 2.30929 7.95775C2.92104 8.04153 3.58549 8.11072 4.11157 8.11072C4.63765 8.11072 5.30211 8.04153 5.91385 7.95775C6.98043 7.81168 7.81253 6.97958 7.9586 5.913C8.04238 5.30126 8.11157 4.6368 8.11157 4.11072C8.11157 3.58464 8.04238 2.92018 7.9586 2.30844C7.81253 1.24186 6.98043 0.409761 5.91385 0.263688C5.30211 0.179908 4.63765 0.110718 4.11157 0.110718C3.58549 0.110718 2.92104 0.179908 2.30929 0.263688Z" fill="url(#paint2_linear_115_16)" fill-opacity="0.2"/>
<path fill-rule="evenodd" clip-rule="evenodd" d="M4.11157 1.8885C3.70963 1.8885 3.14173 1.94406 2.55052 2.02502C2.27431 2.06285 2.06371 2.27346 2.02588 2.54966C1.94491 3.14087 1.88935 3.70878 1.88935 4.11072C1.88935 4.51266 1.94491 5.08056 2.02588 5.67178C2.06371 5.94798 2.27431 6.15859 2.55052 6.19641C3.14173 6.27738 3.70963 6.33294 4.11157 6.33294C4.51351 6.33294 5.08142 6.27738 5.67263 6.19641C5.94883 6.15859 6.15944 5.94798 6.19727 5.67178C6.27824 5.08056 6.3338 4.51266 6.3338 4.11072C6.3338 3.70878 6.27824 3.14087 6.19727 2.54966C6.15944 2.27346 5.94883 2.06285 5.67263 2.02502C5.08142 1.94406 4.51351 1.8885 4.11157 1.8885ZM2.30929 0.263688C1.24271 0.409761 0.410615 1.24186 0.264543 2.30844C0.180762 2.92018 0.111572 3.58464 0.111572 4.11072C0.111572 4.6368 0.180762 5.30126 0.264543 5.913C0.410615 6.97958 1.24271 7.81168 2.30929 7.95775C2.92104 8.04153 3.58549 8.11072 4.11157 8.11072C4.63765 8.11072 5.30211 8.04153 5.91385 7.95775C6.98043 7.81168 7.81253 6.97958 7.9586 5.913C8.04238 5.30126 8.11157 4.6368 8.11157 4.11072C8.11157 3.58464 8.04238 2.92018 7.9586 2.30844C7.81253 1.24186 6.98043 0.409761 5.91385 0.263688C5.30211 0.179908 4.63765 0.110718 4.11157 0.110718C3.58549 0.110718 2.92104 0.179908 2.30929 0.263688Z" fill="#FAFBFC"/>
<path fill-rule="evenodd" clip-rule="evenodd" d="M14.8064 11.6666C14.8064 11.3637 14.5609 11.1182 14.258 11.1182C13.9551 11.1182 13.7096 11.3637 13.7096 11.6666V13.7101H11.666C11.3631 13.7101 11.1176 13.9556 11.1176 14.2585C11.1176 14.5614 11.3631 14.807 11.666 14.807H13.7096V16.8518C13.7096 17.1547 13.9551 17.4002 14.258 17.4002C14.5609 17.4002 14.8064 17.1547 14.8064 16.8518V14.807H16.8512C17.1541 14.807 17.3996 14.5614 17.3996 14.2585C17.3996 13.9556 17.1541 13.7101 16.8512 13.7101H14.8064V11.6666Z" fill="url(#paint3_linear_115_16)" fill-opacity="0.2"/>
<path fill-rule="evenodd" clip-rule="evenodd" d="M14.8064 11.6666C14.8064 11.3637 14.5609 11.1182 14.258 11.1182C13.9551 11.1182 13.7096 11.3637 13.7096 11.6666V13.7101H11.666C11.3631 13.7101 11.1176 13.9556 11.1176 14.2585C11.1176 14.5614 11.3631 14.807 11.666 14.807H13.7096V16.8518C13.7096 17.1547 13.9551 17.4002 14.258 17.4002C14.5609 17.4002 14.8064 17.1547 14.8064 16.8518V14.807H16.8512C17.1541 14.807 17.3996 14.5614 17.3996 14.2585C17.3996 13.9556 17.1541 13.7101 16.8512 13.7101H14.8064V11.6666Z" fill="#FAFBFC"/>
<defs>
<linearGradient id="paint0_linear_115_16" x1="0.111572" y1="13.8884" x2="8.11157" y2="13.8884" gradientUnits="userSpaceOnUse">
<stop stop-color="#F0F0F0"/>
<stop offset="1" stop-color="#F0F0F0" stop-opacity="0"/>
</linearGradient>
<linearGradient id="paint1_linear_115_16" x1="9.88953" y1="4.11072" x2="17.8895" y2="4.11072" gradientUnits="userSpaceOnUse">
<stop stop-color="#F0F0F0"/>
<stop offset="1" stop-color="#F0F0F0" stop-opacity="0"/>
</linearGradient>
<linearGradient id="paint2_linear_115_16" x1="0.111572" y1="4.11072" x2="8.11157" y2="4.11072" gradientUnits="userSpaceOnUse">
<stop stop-color="#F0F0F0"/>
<stop offset="1" stop-color="#F0F0F0" stop-opacity="0"/>
</linearGradient>
<linearGradient id="paint3_linear_115_16" x1="11.1176" y1="14.2592" x2="17.3996" y2="14.2592" gradientUnits="userSpaceOnUse">
<stop stop-color="#F0F0F0"/>
<stop offset="1" stop-color="#F0F0F0" stop-opacity="0"/>
</linearGradient>
</defs>
</svg>
