<svg width="23" height="23" viewBox="0 0 23 23" fill="none" xmlns="http://www.w3.org/2000/svg">
<g clip-path="url(#clip0_1_449)">
<path d="M18.8224 9.19368L11.6397 17.6676L11.048 18.365L7.83745 22.1526L8.77506 18.4026L9.98787 13.5551L3.15222 13.5551L10.3355 5.08115L14.1366 0.597229L11.9868 9.19368L18.8224 9.19368Z" fill="url(#paint0_linear_1_449)"/>
<path d="M18.8224 9.19176L11.9819 17.2711L11.6404 17.6751L12.1206 15.7595C12.186 15.4982 12.1908 15.2254 12.1346 14.962C12.0784 14.6986 11.9627 14.4513 11.7962 14.2391C11.6298 14.0269 11.417 13.8553 11.1739 13.7373C10.9309 13.6193 10.6641 13.558 10.3938 13.558L3.15222 13.558L10.3381 5.07465L9.85902 6.9903C9.79427 7.25157 9.78998 7.52408 9.84646 7.78724C9.90294 8.05041 10.0187 8.29734 10.185 8.50939C10.3514 8.72143 10.5639 8.89305 10.8066 9.01126C11.0493 9.12947 11.3157 9.19119 11.5859 9.19176L18.8224 9.19176Z" fill="url(#paint1_linear_1_449)"/>
</g>
<defs>
<linearGradient id="paint0_linear_1_449" x1="18.8224" y1="9.18514" x2="3.47139" y2="13.4114" gradientUnits="userSpaceOnUse">
<stop offset="0.01" stop-color="#36D9FF"/>
<stop offset="0.255208" stop-color="#3D8AEA"/>
<stop offset="0.5" stop-color="#4444D7"/>
<stop offset="0.98" stop-color="#3A3345"/>
</linearGradient>
<linearGradient id="paint1_linear_1_449" x1="3.15222" y1="13.4424" x2="18.8102" y2="9.06791" gradientUnits="userSpaceOnUse">
<stop stop-color="#36D9FF"/>
<stop offset="1" stop-color="#4A00C5"/>
</linearGradient>
<clipPath id="clip0_1_449">
<rect width="21.6726" height="21.5554" fill="white" transform="translate(0.370239 0.597496)"/>
</clipPath>
</defs>
</svg>
