<svg width="18" height="23" viewBox="0 0 18 23" fill="none" xmlns="http://www.w3.org/2000/svg">
<path d="M8.44486 18.3435L8.44471 18.3436L6.44916 20.6916L6.91619 18.8287L6.9162 18.8286L8.19383 13.7357L8.34978 13.114H7.70886H1.589L8.45604 5.0348L8.45605 5.03479L11.0736 1.95532L9.3296 8.91014L9.17373 9.53175H9.81459H15.9345L9.06812 17.6108L9.06797 17.611L8.44486 18.3435Z" stroke="white"/>
<path d="M9.39226 9.52969H15.9353L10.4567 15.9833C10.5286 15.6556 10.5296 15.3161 10.4593 14.9875C10.3841 14.636 10.2293 14.3063 10.0069 14.0236L9.61388 14.3327L10.0069 14.0236C9.78448 13.7408 9.50037 13.5124 9.17628 13.3554C8.85226 13.1984 8.49666 13.117 8.13647 13.1171C8.13642 13.1171 8.13637 13.1171 8.13632 13.1171H1.58847L7.07308 6.65943C7.00088 6.9885 7.00009 7.32939 7.07107 7.65925C7.14662 8.01028 7.30142 8.33943 7.52357 8.62188C7.7457 8.90431 8.02933 9.13262 8.35284 9.28979C8.67634 9.44696 9.0314 9.52894 9.39122 9.52969H9.39226Z" stroke="white"/>
</svg>
