<svg width="14" height="14" viewBox="0 0 14 14" fill="none" xmlns="http://www.w3.org/2000/svg">
<path fill-rule="evenodd" clip-rule="evenodd" d="M1.36778 1.30932C1.54602 1.15473 1.79983 1.12273 2.01086 1.22825L12.5109 6.47825C12.7085 6.57706 12.8333 6.77905 12.8333 7C12.8333 7.22095 12.7085 7.42294 12.5109 7.52175L2.01086 12.7717C1.79983 12.8773 1.54602 12.8453 1.36778 12.6907C1.18954 12.5361 1.12198 12.2894 1.19659 12.0655L2.8851 7L1.19659 1.93446C1.12198 1.71064 1.18954 1.4639 1.36778 1.30932ZM3.92043 7.58333L2.74872 11.0984L10.9456 7L2.74872 2.90155L3.92043 6.41667H6.99998C7.32215 6.41667 7.58332 6.67783 7.58332 7C7.58332 7.32217 7.32215 7.58333 6.99998 7.58333H3.92043Z" fill="url(#paint0_linear_1_429)" fill-opacity="0.2"/>
<path fill-rule="evenodd" clip-rule="evenodd" d="M1.36778 1.30932C1.54602 1.15473 1.79983 1.12273 2.01086 1.22825L12.5109 6.47825C12.7085 6.57706 12.8333 6.77905 12.8333 7C12.8333 7.22095 12.7085 7.42294 12.5109 7.52175L2.01086 12.7717C1.79983 12.8773 1.54602 12.8453 1.36778 12.6907C1.18954 12.5361 1.12198 12.2894 1.19659 12.0655L2.8851 7L1.19659 1.93446C1.12198 1.71064 1.18954 1.4639 1.36778 1.30932ZM3.92043 7.58333L2.74872 11.0984L10.9456 7L2.74872 2.90155L3.92043 6.41667H6.99998C7.32215 6.41667 7.58332 6.67783 7.58332 7C7.58332 7.32217 7.32215 7.58333 6.99998 7.58333H3.92043Z" fill="#FAFBFC"/>
<defs>
<linearGradient id="paint0_linear_1_429" x1="1.16663" y1="7" x2="12.8333" y2="7" gradientUnits="userSpaceOnUse">
<stop stop-color="#F0F0F0"/>
<stop offset="1" stop-color="#F0F0F0" stop-opacity="0"/>
</linearGradient>
</defs>
</svg>
