<svg width="16" height="17" viewBox="0 0 16 17" fill="none" xmlns="http://www.w3.org/2000/svg">
<path d="M2.1 6.56521C2.29535 6.80939 2.44186 7.10242 2.53954 7.39544C2.63721 7.68846 2.68605 8.03032 2.68605 8.37218C2.68605 8.71404 2.63721 9.0559 2.53954 9.34893C2.44186 9.64195 2.29535 9.93497 2.1 10.1792C1.85582 10.521 1.90466 11.0094 2.24652 11.2536C2.58838 11.4978 3.07675 11.4489 3.32093 11.1071C3.61396 10.7164 3.80931 10.3257 4.00465 9.8373C4.2 9.34893 4.24884 8.86055 4.24884 8.37218C4.24884 7.88381 4.15117 7.39544 4.00465 6.90707C3.85814 6.46753 3.61396 6.028 3.32093 5.6373C3.07675 5.29544 2.58838 5.2466 2.24652 5.49079C1.90466 5.73497 1.85582 6.22335 2.1 6.56521Z" fill="#D3E1F5"/>
<path d="M4.78605 5.14892C5.3721 6.07683 5.71396 7.20009 5.71396 8.37218C5.71396 9.54427 5.3721 10.6675 4.78605 11.5954C4.54186 11.9373 4.68837 12.4257 5.03023 12.6699C5.42093 12.914 5.86047 12.7675 6.10465 12.4257C6.83721 11.2536 7.27675 9.88613 7.27675 8.37218C7.27675 6.90706 6.83721 5.49078 6.10465 4.31869C5.86047 3.97683 5.3721 3.83032 5.03023 4.07451C4.68837 4.31869 4.54186 4.75823 4.78605 5.14892Z" fill="#D3E1F5"/>
<path d="M7.6186 3.68381C8.44883 5.05125 8.88837 6.66288 8.88837 8.37218C8.88837 10.0815 8.4 11.6931 7.6186 13.0606C7.42325 13.4513 7.52093 13.8908 7.91163 14.135C8.30232 14.3303 8.74186 14.2326 8.98604 13.8419C9.96279 12.2303 10.5 10.3745 10.5 8.37218C10.5 6.36986 9.96279 4.51404 8.98604 2.90241C8.79069 2.51172 8.30232 2.41404 7.91163 2.60939C7.52093 2.85358 7.42325 3.29311 7.6186 3.68381Z" fill="#D3E1F5"/>
<path d="M10.4511 2.21869C11.4767 4.02567 12.1116 6.12567 12.1116 8.37218C12.1116 10.6187 11.5256 12.7187 10.4511 14.5257C10.2558 14.9164 10.3535 15.3559 10.7442 15.6001C11.1349 15.7954 11.5744 15.6978 11.8186 15.3071C12.9907 13.2559 13.6744 10.9117 13.6744 8.37218C13.6744 5.83265 12.9907 3.48846 11.8186 1.4373C11.6232 1.0466 11.1349 0.948926 10.7442 1.14427C10.3535 1.33962 10.2558 1.828 10.4511 2.21869Z" fill="#D3E1F5"/>
</svg>
